<?xml version="1.0" encoding="utf-8"?>
<!-- Generator: Adobe Illustrator 24.3.0, SVG Export Plug-In . SVG Version: 6.00 Build 0)  -->
<svg version="1.1" id="Layer_1" xmlns="http://www.w3.org/2000/svg" xmlns:xlink="http://www.w3.org/1999/xlink" x="0px" y="0px"
	 viewBox="0 0 200 200" style="enable-background:new 0 0 200 200;" xml:space="preserve">
<style type="text/css">
	.st0{fill:#FFFFFF;}
</style>
<g>
	<g>
		<g>
			<path class="st0" d="M49.15,134.73c6.25-9.86,12.95-19.43,20.23-28.54c0.91-1.14,1.78-2.31,2.71-3.43l2.81-3.35
				c1.89-2.21,3.69-4.5,5.69-6.63l5.86-6.47l6.1-6.24c8.25-8.18,16.84-16.03,26.07-23.06l3.42-2.68c1.16-0.87,2.35-1.69,3.53-2.54
				l7.07-5.03l1.86-1.19l1.65-1.05l3.8-2.43c1.22-0.77,2.42-1.58,3.66-2.31l3.76-2.15c2.51-1.42,4.99-2.89,7.53-4.26l7.26-3.66
				c-5.77,2.31-11.5,4.81-17.11,7.64c-3.74,1.79-7.42,3.71-11.07,5.73c-0.57,0.31-1.14,0.64-1.7,0.96
				c-5.08,2.86-10.09,5.91-15.06,9.1l-6.73,4.52c-2.27,1.5-4.39,3.17-6.6,4.76c-4.46,3.17-8.62,6.66-12.94,10.09
				c-8.39,7.07-16.52,14.62-24.29,22.64c-4.87,5.1-9.6,10.39-14.19,15.83c-10.79,12.83-32.03,4.82-31.14-11.93
				c0.02-0.34,0.04-0.67,0.07-0.99c2.4-24.88,17.45-47.91,41.68-59.4c12.08-5.73,24.94-7.85,37.37-6.84
				c-15.24-2.34-31.32-0.3-46.3,6.8C19.28,55.16,1.89,93.58,10.6,129.63c0.17,0.68,0.57,1.75,1.16,3.1
				c6.78,15.5,28.19,16.86,37.09,2.48C48.96,135.04,49.06,134.88,49.15,134.73z"/>
			<path class="st0" d="M145.37,52.04c-0.44,0.46-0.87,0.92-1.31,1.38c-0.02,0.02-0.03,0.03-0.04,0.05
				c-1.76,1.82-3.37,3.79-5.06,5.68c-1.67,1.93-3.4,3.81-4.97,5.83l-4.8,5.96c-1.57,2.01-3.05,4.09-4.58,6.12l-2.27,3.07l-2.16,3.15
				c-1.43,2.11-2.89,4.19-4.29,6.32c-5.53,8.54-10.61,17.35-15.29,26.35c-6.38,12.51-11.93,25.41-16.63,38.59
				c-0.52,1.47-1.37,4.13-2.36,7.36c-4.41,14.44,7.44,28.64,22.45,26.97c2.66-0.3,4.87-0.65,6.24-1.04
				c4.16-1.19,8.28-2.73,12.32-4.65c31.35-14.86,48.56-47.48,45.34-80.13c0.76,28.21-14.83,55.56-41.97,68.42
				c-1.38,0.66-2.77,1.26-4.18,1.82c-13.25,5.31-26.91-6.88-23.45-20.73c2.7-10.83,5.95-22.69,8.94-30.58
				c3.44-8.83,7.38-17.55,11.78-26.18c2.32-4.2,4.55-8.57,7.12-12.69c1.27-2.07,2.47-4.24,3.83-6.26l4.06-6.16
				c3.64-5.27,7.47-10.52,11.54-15.61c0.42-0.52,0.83-1.04,1.25-1.55c1.79-2.19,3.62-4.36,5.51-6.48
				c5.16-6.04,10.77-11.7,16.61-17.26c-4.89,4.04-9.66,8.22-14.17,12.67C151.54,45.52,148.46,48.79,145.37,52.04z"/>
			<path class="st0" d="M139.17,46.73c-0.52,0.38-1.05,0.76-1.59,1.15c-4.36,3.18-8.93,6.68-13.61,10.52
				c-0.06,0.05-0.12,0.1-0.19,0.15l-2.23,2.01c-8.58,7.48-16.46,15.72-23.96,24.23l-5.53,6.47l-5.28,6.67
				c-1.8,2.19-3.4,4.54-5.09,6.8l-2.51,3.43c-0.83,1.14-1.6,2.34-2.4,3.5c-6.46,9.3-12.32,18.99-17.72,28.92
				c-3.85,7.08-7.45,14.29-10.81,21.61c-0.63,1.37-1.83,4.13-3.02,6.86c-1.85,4.28-0.16,9.27,3.91,11.56
				c0.06,0.03,0.11,0.06,0.17,0.09c4.94,2.76,11.18,0.37,13.03-4.97c1.31-3.76,2.51-7.16,2.76-7.82
				c7.39-19.67,16.6-38.6,27.45-56.46c5.5-8.89,11.38-17.53,17.68-25.83c1.59-2.07,3.24-4.08,4.86-6.12l2.44-3.04l2.55-2.96
				c1.71-1.96,3.37-3.96,5.12-5.88l5.33-5.69c1.74-1.93,3.63-3.71,5.48-5.53c1.83-1.76,3.57-3.59,5.46-5.28
				c0.05-0.04,0.09-0.08,0.13-0.12c0.44-0.39,0.87-0.79,1.31-1.18c3.41-3.08,6.78-6.19,10.38-9.04c6.4-5.43,13.19-10.35,20.09-15.08
				c0.16-0.14,0.31-0.29,0.46-0.43C173.86,25.24,158.94,32.49,139.17,46.73z"/>
		</g>
		<g>
			<g>
				<polygon class="st0" points="176.93,35.92 174.65,24.66 164.96,18.47 191.62,13.01 				"/>
			</g>
		</g>
		<g>
			<g>
				<path class="st0" d="M147.15,67.32c-1.91,2.58-3.86,5.3-5.88,8.22l-4,6.08c-0.79,1.18-1.52,2.41-2.29,3.71
					c-0.46,0.78-0.92,1.56-1.4,2.33c-1.75,2.8-3.31,5.69-4.96,8.74c-0.63,1.16-1.26,2.32-1.89,3.47
					c-4.27,8.38-8.09,16.88-11.36,25.26c-2.36,6.24-5.35,16.48-8.61,29.53c-0.74,2.98,0.01,5.99,2.08,8.26
					c2.03,2.23,4.92,3.31,7.72,2.89c0.26-0.04,0.52-0.1,0.78-0.17c14.9-5.57,26.93-16.36,34.23-29.87c0.04-0.08,0.08-0.15,0.12-0.23
					c0.9-1.68,1.71-3.4,2.46-5.15c0.15-0.35,0.29-0.7,0.43-1.05c0.19-0.47,0.38-0.95,0.56-1.43c0.16-0.43,0.33-0.86,0.48-1.3
					c0.13-0.37,0.25-0.74,0.37-1.11c0.32-0.97,0.62-1.94,0.9-2.92c0.07-0.25,0.14-0.49,0.21-0.73c0.16-0.59,0.31-1.19,0.45-1.79
					c0.06-0.25,0.11-0.49,0.17-0.74c0.44-1.94,0.79-3.91,1.04-5.89c0.04-0.29,0.08-0.59,0.11-0.88c0.06-0.55,0.12-1.1,0.17-1.66
					c0.04-0.42,0.07-0.85,0.1-1.28c0.03-0.47,0.07-0.95,0.09-1.42c0.04-0.89,0.07-1.78,0.07-2.67c0-0.24-0.01-0.48-0.01-0.73
					c-0.02-3.08-0.24-6.19-0.72-9.33C157.02,84.94,152.97,75.4,147.15,67.32z"/>
				<path class="st0" d="M40.35,108.56c2.13-0.32,3.96-1.38,5.45-3.15c4.65-5.53,9.54-10.99,14.55-16.24
					c7.82-8.07,16.21-15.89,24.98-23.28l0.2-0.16c1.06-0.84,2.11-1.69,3.16-2.54c3.24-2.61,6.59-5.31,10.15-7.83
					c0.68-0.49,1.39-1.01,2.1-1.54c1.5-1.11,3.05-2.27,4.75-3.38l6.84-4.59c1.05-0.67,2.07-1.31,3.09-1.95
					c-9.52-3.27-19.94-4.38-30.58-2.77c-30.9,4.65-53.38,30.43-54.97,60.46c0.3,1.81,1.14,3.36,2.53,4.63
					C34.64,108.07,37.61,108.98,40.35,108.56z"/>
			</g>
		</g>
		<path class="st0" d="M100.93,53.82c1.5-1.11,3.05-2.27,4.75-3.38l6.84-4.59c0.9-0.58,1.78-1.13,2.66-1.68l-2.57,1.35
			c-2.42,1.25-4.7,2.67-7.08,4.02c-4.77,2.67-9.29,5.69-13.96,8.64c-9.1,6.12-18,12.75-26.6,19.88
			c-5.39,4.55-10.67,9.29-15.81,14.21c-5.48,5.25-12.63,6.01-18.56,3.74c-0.26,1.84-0.44,3.7-0.54,5.58
			c0.3,1.81,1.14,3.36,2.53,4.63c2.05,1.86,5.03,2.77,7.77,2.35c2.13-0.32,3.96-1.38,5.45-3.15c4.65-5.53,9.54-10.99,14.55-16.24
			c7.82-8.07,16.21-15.89,24.98-23.28l0.2-0.16c1.06-0.84,2.11-1.69,3.16-2.54c3.24-2.61,6.59-5.31,10.15-7.83
			C99.52,54.88,100.23,54.35,100.93,53.82z"/>
		<path class="st0" d="M117.39,145.05c2.34-10.91,5.2-22.88,7.93-30.86c3.15-8.94,6.79-17.79,10.91-26.55
			c2.18-4.28,4.26-8.71,6.7-12.92c1.2-2.11,2.33-4.32,3.62-6.39l0.61-1c0,0,0-0.01-0.01-0.01c-1.91,2.58-3.86,5.3-5.88,8.22l-4,6.08
			c-0.79,1.18-1.52,2.41-2.29,3.71c-0.46,0.78-0.92,1.56-1.4,2.33c-1.75,2.8-3.31,5.69-4.96,8.74c-0.63,1.16-1.26,2.32-1.89,3.47
			c-4.27,8.38-8.09,16.88-11.36,25.26c-2.36,6.24-5.35,16.48-8.61,29.53c-0.74,2.98,0.01,5.99,2.08,8.26
			c2.03,2.23,4.92,3.31,7.72,2.89c0.26-0.04,0.52-0.1,0.78-0.17c2.25-0.84,4.42-1.81,6.54-2.88
			C118.84,158.84,115.85,152.24,117.39,145.05z"/>
	</g>
</g>
</svg>
